 <svg
      width="36"
      height="36"
      viewBox="0 0 36 36"
      xmlns="http://www.w3.org/2000/svg"
    >
      <rect width="36" height="36" rx="10" fill="#FFA500"  />
      <path
        d="M15.7034 19.1602C15.6358 19.1602 14.1489 19.1602 13.4731 19.1602C13.1126 19.1602 13 19.025 13 18.6871C13 17.786 13 16.8623 13 15.9612C13 15.6008 13.1352 15.4881 13.4731 15.4881H15.7034C15.7034 15.4205 15.7034 14.1139 15.7034 13.5056C15.7034 12.6045 15.8611 11.7484 16.3116 10.9599C16.7847 10.1489 17.4606 9.60826 18.3166 9.29287C18.8798 9.09011 19.4431 9 20.0513 9H22.2591C22.5745 9 22.7096 9.13517 22.7096 9.45056V12.0188C22.7096 12.3342 22.5745 12.4693 22.2591 12.4693C21.6508 12.4693 21.0426 12.4693 20.4343 12.4919C19.826 12.4919 19.5106 12.7847 19.5106 13.4155C19.4881 14.0914 19.5106 14.7447 19.5106 15.4431H22.1239C22.4844 15.4431 22.6195 15.5782 22.6195 15.9387V18.6646C22.6195 19.025 22.5069 19.1377 22.1239 19.1377C21.3129 19.1377 19.5782 19.1377 19.5106 19.1377V26.4819C19.5106 26.8648 19.398 27 18.9925 27C18.0463 27 17.1227 27 16.1765 27C15.8385 27 15.7034 26.8648 15.7034 26.5269C15.7034 24.1615 15.7034 19.2278 15.7034 19.1602Z"
        fill="white"
      />
    </svg>