<svg
  width="164"
  height="16"
  viewBox="0 0 164 16"
  fill="none"
  xmlns="http://www.w3.org/2000/svg"
>
<path d="M3.85935 0.918945V15.8629H0.158691V0.918945H3.85935Z" fill="#109EF4" />
<path
    d="M19.2133 0.918945V15.8629H16.0734L9.98039 7.23802H9.8832V15.8629H6.18254V0.918945H9.36735L15.3931 9.52924H15.5202V0.918945H19.2133Z"
    fill="#109EF4"
  />
<path
    d="M21.0394 3.85228V0.918945H33.9805V3.85228H29.3378V15.8629H25.6895V3.85228H21.0394Z"
    fill="#109EF4"
  />
<path
    d="M35.7878 15.8629V0.918945H46.4636V3.85228H39.4885V6.91696H45.9179V9.85759H39.4885V12.9296H46.4636V15.8629H35.7878Z"
    fill="#109EF4"
  />
<path
    d="M52.5267 0.918945L55.3228 5.64001H55.4424L58.2684 0.918945H62.4101L57.7899 8.39093L62.5596 15.8629H58.3132L55.4424 11.0908H55.3228L52.452 15.8629H48.2355L52.9828 8.39093L48.3551 0.918945H52.5267Z"
    fill="#109EF4"
  />
<path d="M70.6245 7.01912V9.76274H63.5371V7.01912H70.6245Z" fill="#109EF4" />
<path
    d="M73.2056 0.918945H77.7884L81.676 10.1714H81.8554L85.7429 0.918945H90.3258V15.8629H86.7223V6.68346H86.5952L82.917 15.768H80.6143L76.9361 6.63238H76.809V15.8629H73.2056V0.918945Z"
    fill="#109EF4"
  />
<path
    d="M95.9459 15.8629H91.9686L97.1346 0.918945H102.061L107.227 15.8629H103.25L99.6541 4.68412H99.5344L95.9459 15.8629ZM95.4151 9.98164H103.729V12.7253H95.4151V9.98164Z"
    fill="#109EF4"
  />
<path
    d="M108.876 15.8629V0.918945H115.201C116.347 0.918945 117.336 1.12083 118.169 1.52458C119.006 1.92348 119.651 2.4975 120.105 3.24664C120.558 3.99092 120.785 4.87384 120.785 5.8954C120.785 6.93156 120.553 7.81204 120.09 8.53686C119.626 9.25682 118.968 9.80652 118.116 10.186C117.264 10.5605 116.255 10.7478 115.088 10.7478H111.089V7.90204H114.401C114.959 7.90204 115.425 7.8315 115.799 7.69043C116.177 7.54449 116.464 7.32559 116.658 7.03371C116.853 6.73697 116.95 6.35754 116.95 5.8954C116.95 5.43327 116.853 5.0514 116.658 4.7498C116.464 4.44333 116.177 4.21469 115.799 4.06389C115.42 3.90822 114.954 3.83039 114.401 3.83039H112.576V15.8629H108.876ZM117.496 9.03305L121.309 15.8629H117.271L113.533 9.03305H117.496Z"
    fill="#109EF4"
  />
<path
    d="M122.815 15.8629V0.918945H126.516V7.23802H126.717L131.779 0.918945H136.137L130.71 7.58827L136.234 15.8629H131.809L127.996 9.98894L126.516 11.8132V15.8629H122.815Z"
    fill="#109EF4"
  />
<path
    d="M137.597 15.8629V0.918945H148.273V3.85228H141.298V6.91696H147.727V9.85759H141.298V12.9296H148.273V15.8629H137.597Z"
    fill="#109EF4"
  />
<path
    d="M150.09 3.85228V0.918945H163.031V3.85228H158.388V15.8629H154.74V3.85228H150.09Z"
    fill="#109EF4"
  />
</svg>
