<svg
  width="36"
  height="36"
  viewBox="0 0 36 36"
  fill="none"
  xmlns="http://www.w3.org/2000/svg"
>
<rect width="36" height="36" rx="10" fill="#FFA500" />
<g clip-path="url(#clip0_598_5566)">
<path
      d="M18.0001 14.8753C16.2798 14.8753 14.8759 16.2792 14.8759 17.9995C14.8759 19.7198 16.2798 21.1237 18.0001 21.1237C19.7204 21.1237 21.1243 19.7198 21.1243 17.9995C21.1243 16.2792 19.7204 14.8753 18.0001 14.8753ZM27.3704 17.9995C27.3704 16.7058 27.3821 15.4237 27.3095 14.1323C27.2368 12.6323 26.8946 11.3011 25.7978 10.2042C24.6985 9.10499 23.3696 8.76515 21.8696 8.69249C20.5759 8.61984 19.2939 8.63156 18.0025 8.63156C16.7087 8.63156 15.4267 8.61984 14.1353 8.69249C12.6353 8.76515 11.304 9.10734 10.2071 10.2042C9.10792 11.3034 8.76808 12.6323 8.69542 14.1323C8.62277 15.4261 8.63449 16.7081 8.63449 17.9995C8.63449 19.2909 8.62277 20.5753 8.69542 21.8667C8.76808 23.3667 9.11027 24.698 10.2071 25.7948C11.3064 26.8941 12.6353 27.2339 14.1353 27.3066C15.429 27.3792 16.711 27.3675 18.0025 27.3675C19.2962 27.3675 20.5782 27.3792 21.8696 27.3066C23.3696 27.2339 24.7009 26.8917 25.7978 25.7948C26.897 24.6956 27.2368 23.3667 27.3095 21.8667C27.3845 20.5753 27.3704 19.2933 27.3704 17.9995ZM18.0001 22.8066C15.34 22.8066 13.1931 20.6597 13.1931 17.9995C13.1931 15.3394 15.34 13.1925 18.0001 13.1925C20.6603 13.1925 22.8071 15.3394 22.8071 17.9995C22.8071 20.6597 20.6603 22.8066 18.0001 22.8066ZM23.004 14.1183C22.3829 14.1183 21.8814 13.6167 21.8814 12.9956C21.8814 12.3745 22.3829 11.873 23.004 11.873C23.6251 11.873 24.1267 12.3745 24.1267 12.9956C24.1269 13.1431 24.0979 13.2892 24.0416 13.4255C23.9852 13.5617 23.9026 13.6856 23.7983 13.7899C23.694 13.8942 23.5701 13.9768 23.4339 14.0332C23.2976 14.0895 23.1515 14.1185 23.004 14.1183Z"
      fill="#F7FCFC"
    />
</g>
<defs>
<clipPath id="clip0_598_5566">
<rect width="24" height="24" fill="white" transform="translate(6 6)" />
</clipPath>
</defs>
</svg>
