<svg
  width="36"
  height="36"
  viewBox="0 0 36 36"
  fill="none"
  xmlns="http://www.w3.org/2000/svg"
>
<rect width="36" height="36" rx="10" fill="#FFA500" />
<path
    d="M27.0002 26.9989V20.4064C27.0002 17.1664 26.3027 14.6914 22.5227 14.6914C20.7002 14.6914 19.4852 15.6814 18.9902 16.6264H18.9452V14.9839H15.3677V26.9989H19.1027V21.0364C19.1027 19.4614 19.3952 17.9539 21.3302 17.9539C23.2427 17.9539 23.2652 19.7314 23.2652 21.1264V26.9764H27.0002V26.9989Z"
    fill="white"
  />
<path d="M9.29248 14.9844H13.0275V26.9994H9.29248V14.9844Z" fill="white" />
<path
    d="M11.16 9C9.9675 9 9 9.9675 9 11.16C9 12.3525 9.9675 13.3425 11.16 13.3425C12.3525 13.3425 13.32 12.3525 13.32 11.16C13.32 9.9675 12.3525 9 11.16 9Z"
    fill="white"
  />
</svg>
