<svg width="18" height="23" viewBox="0 0 18 23" fill="none" xmlns="http://www.w3.org/2000/svg">
<path fill-rule="evenodd" clip-rule="evenodd" d="M9 4.5C7.4087 4.5 5.88258 5.13214 4.75736 6.25736C3.63214 7.38258 3 8.9087 3 10.5C3 12.8235 4.5118 15.0782 6.16946 16.8279C6.98296 17.6866 7.799 18.3896 8.41251 18.8781C8.64084 19.0599 8.84027 19.2114 9 19.3294C9.15973 19.2114 9.35916 19.0599 9.58749 18.8781C10.201 18.3896 11.017 17.6866 11.8305 16.8279C13.4882 15.0782 15 12.8235 15 10.5C15 8.9087 14.3679 7.38258 13.2426 6.25736C12.1174 5.13214 10.5913 4.5 9 4.5ZM9 20.25C8.58397 20.874 8.58379 20.8739 8.58357 20.8738L8.58143 20.8723L8.57643 20.869L8.55924 20.8574C8.54464 20.8474 8.52381 20.8332 8.49717 20.8147C8.4439 20.7778 8.36735 20.7241 8.27084 20.6544C8.07791 20.5151 7.80477 20.3117 7.47812 20.0516C6.826 19.5323 5.95454 18.7821 5.08054 17.8596C3.3632 16.0468 1.5 13.4265 1.5 10.5C1.5 8.51088 2.29018 6.60322 3.6967 5.1967C5.10322 3.79018 7.01088 3 9 3C10.9891 3 12.8968 3.79018 14.3033 5.1967C15.7098 6.60322 16.5 8.51088 16.5 10.5C16.5 13.4265 14.6368 16.0468 12.9195 17.8596C12.0455 18.7821 11.174 19.5323 10.5219 20.0516C10.1952 20.3117 9.92209 20.5151 9.72916 20.6544C9.63265 20.7241 9.5561 20.7778 9.50283 20.8147C9.47619 20.8332 9.45536 20.8474 9.44076 20.8574L9.42357 20.869L9.41857 20.8723L9.41699 20.8734C9.41678 20.8735 9.41603 20.874 9 20.25ZM9 20.25L9.41603 20.874C9.1641 21.042 8.83549 21.0417 8.58357 20.8738L9 20.25Z" fill="#109EF4"/>
<path fill-rule="evenodd" clip-rule="evenodd" d="M9 9C8.17157 9 7.5 9.67157 7.5 10.5C7.5 11.3284 8.17157 12 9 12C9.82843 12 10.5 11.3284 10.5 10.5C10.5 9.67157 9.82843 9 9 9ZM6 10.5C6 8.84315 7.34315 7.5 9 7.5C10.6569 7.5 12 8.84315 12 10.5C12 12.1569 10.6569 13.5 9 13.5C7.34315 13.5 6 12.1569 6 10.5Z" fill="#109EF4"/>
</svg>
