<svg width="18" height="19" viewBox="0 0 18 19" fill="none" xmlns="http://www.w3.org/2000/svg">
<path fill-rule="evenodd" clip-rule="evenodd" d="M3 4.25C2.58921 4.25 2.25 4.58921 2.25 5V14C2.25 14.4108 2.58921 14.75 3 14.75H15C15.4108 14.75 15.75 14.4108 15.75 14V5C15.75 4.58921 15.4108 4.25 15 4.25H3ZM0.75 5C0.75 3.76079 1.76079 2.75 3 2.75H15C16.2392 2.75 17.25 3.76079 17.25 5V14C17.25 15.2392 16.2392 16.25 15 16.25H3C1.76079 16.25 0.75 15.2392 0.75 14V5Z" fill="#109EF4"/>
<path fill-rule="evenodd" clip-rule="evenodd" d="M0.88564 4.56997C1.12318 4.23063 1.59082 4.1481 1.93016 4.38564L9.00006 9.33457L16.07 4.38564C16.4093 4.1481 16.877 4.23063 17.1145 4.56997C17.352 4.9093 17.2695 5.37695 16.9302 5.61449L9.43016 10.8645C9.17192 11.0453 8.82821 11.0453 8.56997 10.8645L1.06997 5.61449C0.730631 5.37695 0.648105 4.9093 0.88564 4.56997Z" fill="#109EF4"/>
</svg>
