<svg width="18" height="19" viewBox="0 0 18 19" fill="none" xmlns="http://www.w3.org/2000/svg">
<path d="M14.9174 17.6975C14.8499 17.6975 14.7824 17.6975 14.7074 17.69C12.2849 17.4275 9.9299 16.5875 7.8974 15.2675C6.0074 14.0675 4.3724 12.4325 3.1724 10.5425C1.8524 8.5025 1.0124 6.14 0.757398 3.7175C0.727398 3.395 0.764898 3.0875 0.862398 2.7875C0.959898 2.4875 1.1249 2.2175 1.3349 1.985C1.5449 1.7525 1.7999 1.5725 2.0849 1.445C2.3774 1.3175 2.6849 1.25 2.9999 1.25H5.2499C5.7749 1.25 6.3149 1.4375 6.7349 1.7975C7.1474 2.15 7.4174 2.645 7.4924 3.185C7.5824 3.8525 7.7474 4.5125 7.9799 5.135C8.1299 5.54 8.1674 5.975 8.0699 6.395C7.9799 6.815 7.7699 7.205 7.4699 7.505L6.9299 8.045C7.8149 9.425 8.9849 10.6025 10.3724 11.4875L10.9124 10.9475C11.2199 10.64 11.6099 10.43 12.0299 10.3475C12.4499 10.2575 12.8849 10.2875 13.2899 10.4375C13.9124 10.67 14.5724 10.835 15.2324 10.925C15.7874 11 16.2824 11.2775 16.6424 11.6975C16.9949 12.1175 17.1899 12.65 17.1749 13.1975V15.44C17.1749 15.755 17.1149 16.055 16.9874 16.3475C16.8599 16.6325 16.6724 16.895 16.4474 17.105C16.2149 17.315 15.9449 17.48 15.6449 17.5775C15.4049 17.66 15.1649 17.6975 14.9174 17.6975ZM5.2649 2.75H5.2574H2.9999C2.8949 2.75 2.7974 2.7725 2.6999 2.8175C2.6024 2.855 2.5124 2.915 2.4449 2.99C2.3699 3.065 2.3174 3.155 2.2874 3.26C2.2574 3.3575 2.2424 3.4625 2.2499 3.5675C2.4824 5.75 3.2399 7.88 4.4324 9.7325C5.5199 11.4425 6.9974 12.92 8.7074 14.0075C10.5524 15.2075 12.6824 15.9575 14.8574 16.1975C14.9474 16.205 15.0524 16.19 15.1499 16.16C15.2474 16.13 15.3374 16.07 15.4199 16.0025C15.5024 15.935 15.5624 15.845 15.5999 15.7475C15.6449 15.65 15.6599 15.545 15.6599 15.44V13.19C15.6599 13.1825 15.6599 13.175 15.6599 13.175C15.6674 12.9875 15.5999 12.815 15.4799 12.6725C15.3599 12.53 15.1949 12.44 15.0149 12.4175C14.2499 12.32 13.4849 12.125 12.7499 11.855C12.6149 11.8025 12.4649 11.795 12.3299 11.825C12.1874 11.855 12.0599 11.9225 11.9549 12.0275L11.0099 12.98C10.7699 13.22 10.4024 13.265 10.1099 13.1C8.1149 11.9675 6.4649 10.31 5.3249 8.3225C5.1674 8.0075 5.2124 7.64 5.4524 7.4L6.4049 6.4475C6.5024 6.35 6.5699 6.2225 6.5999 6.08C6.6299 5.9375 6.6224 5.795 6.5699 5.66C6.2924 4.925 6.1049 4.16 5.9999 3.3875C5.9774 3.215 5.8874 3.05 5.7524 2.93C5.6174 2.8175 5.4449 2.75 5.2649 2.75Z" fill="#109EF4"/>
</svg>
