<svg
  width="36"
  height="36"
  viewBox="0 0 36 36"
  fill="none"
  xmlns="http://www.w3.org/2000/svg"
>
<rect width="36" height="36" rx="10" fill="#FFA500" />
<path
    d="M27 12.7314C26.3306 13.025 25.6174 13.2196 24.8737 13.3141C25.6388 12.8574 26.2226 12.1396 26.4971 11.2745C25.7839 11.6997 24.9964 12.0001 24.1571 12.1678C23.4799 11.4466 22.5146 11 21.4616 11C19.4186 11 17.7739 12.6583 17.7739 14.6911C17.7739 14.9836 17.7986 15.2649 17.8594 15.5326C14.7915 15.383 12.0769 13.9126 10.2533 11.6728C9.93487 12.2251 9.74813 12.8574 9.74813 13.538C9.74813 14.816 10.4062 15.9489 11.3872 16.6047C10.7944 16.5935 10.2127 16.4214 9.72 16.1502C9.72 16.1615 9.72 16.1761 9.72 16.1907C9.72 17.984 10.9991 19.4735 12.6765 19.8166C12.3761 19.8988 12.0487 19.9381 11.709 19.9381C11.4727 19.9381 11.2342 19.9246 11.0104 19.8751C11.4885 21.3365 12.8453 22.4109 14.4585 22.4457C13.203 23.4279 11.6089 24.0196 9.88313 24.0196C9.5805 24.0196 9.29025 24.0061 9 23.969C10.6346 25.0231 12.5719 25.625 14.661 25.625C21.4515 25.625 25.164 20 25.164 15.1242C25.164 14.9611 25.1584 14.8036 25.1505 14.6473C25.8829 14.1275 26.4982 13.4784 27 12.7314Z"
    fill="white"
  />
</svg>
