<svg width="10" height="7" viewBox="0 0 10 7" fill="#f87925" xmlns="http://www.w3.org/2000/svg">
<path d="M5.00017 6.20785C4.87953 6.20855 4.75994 6.18543 4.64826 6.13981C4.53657 6.09419 4.43499 6.02698 4.34934 5.94202L0.68267 2.27535C0.597201 2.18988 0.529404 2.08842 0.483149 1.97675C0.436894 1.86508 0.413086 1.74539 0.413086 1.62452C0.413086 1.50365 0.436894 1.38396 0.483149 1.27229C0.529404 1.16062 0.597201 1.05915 0.68267 0.973685C0.768139 0.888217 0.869605 0.820419 0.981275 0.774164C1.09295 0.727908 1.21263 0.704102 1.3335 0.704102C1.45437 0.704102 1.57406 0.727908 1.68573 0.774164C1.7974 0.820419 1.89887 0.888217 1.98434 0.973685L5.00017 4.00785L8.02517 1.09285C8.1095 0.999086 8.21226 0.923728 8.32704 0.871491C8.44182 0.819254 8.56614 0.791261 8.69223 0.789264C8.81832 0.787266 8.94347 0.811306 9.05984 0.859881C9.17622 0.908456 9.28132 0.980521 9.36857 1.07157C9.45583 1.16262 9.52336 1.27069 9.56694 1.38902C9.61052 1.50736 9.62921 1.63342 9.62186 1.75931C9.6145 1.8852 9.58124 2.00822 9.52417 2.12067C9.4671 2.23312 9.38744 2.33259 9.29017 2.41285L5.6235 5.95119C5.45587 6.11281 5.23301 6.20457 5.00017 6.20785Z" fill="#f87925"/>
</svg>
