<svg width="27" height="29" viewBox="0 0 27 29" fill="none" xmlns="http://www.w3.org/2000/svg">
<path d="M10.5833 13.0417V21.7917M16.4166 13.0417V21.7917M1.83325 7.20833H25.1666M23.7083 7.20833L22.4439 24.9154C22.3915 25.6513 22.0622 26.3399 21.5224 26.8427C20.9825 27.3455 20.2722 27.625 19.5345 27.625H7.46533C6.72762 27.625 6.01731 27.3455 5.47746 26.8427C4.93761 26.3399 4.60834 25.6513 4.55596 24.9154L3.29159 7.20833H23.7083ZM17.8749 7.20833V2.83333C17.8749 2.44656 17.7213 2.07563 17.4478 1.80214C17.1743 1.52865 16.8034 1.375 16.4166 1.375H10.5833C10.1965 1.375 9.82554 1.52865 9.55205 1.80214C9.27856 2.07563 9.12492 2.44656 9.12492 2.83333V7.20833H17.8749Z" stroke="black" stroke-opacity="0.68" stroke-width="2" stroke-linecap="round" stroke-linejoin="round"/>
</svg>
