<svg width="24" height="24" viewBox="0 0 24 24" fill="none" xmlns="http://www.w3.org/2000/svg">
<path d="M11.7224 11.2222C10.6321 11.2222 9.58643 10.7891 8.81544 10.0181C8.04446 9.24712 7.61133 8.20145 7.61133 7.11111C7.61133 6.02078 8.04446 4.9751 8.81544 4.20412C9.58643 3.43313 10.6321 3 11.7224 3C12.8128 3 13.8585 3.43313 14.6294 4.20412C15.4004 4.9751 15.8336 6.02078 15.8336 7.11111C15.8336 8.20145 15.4004 9.24712 14.6294 10.0181C13.8585 10.7891 12.8128 11.2222 11.7224 11.2222Z" stroke="#ff9d3a" stroke-width="1.5" stroke-linecap="round"/>
<path d="M3.5 21.5V20.4722C3.5 18.8367 4.1497 17.2682 5.30617 16.1117C6.46265 14.9552 8.03116 14.3055 9.66667 14.3055H13.7778C15.4133 14.3055 16.9818 14.9552 18.1383 16.1117C19.2947 17.2682 19.9444 18.8367 19.9444 20.4722V21.5" stroke="#ff9d3a" stroke-width="1.5" stroke-linecap="round"/>
</svg>
