<svg width="22" height="22" viewBox="0 0 22 22" fill="none" xmlns="http://www.w3.org/2000/svg">
<path d="M14.2079 11.0001C14.2085 11.1207 14.1854 11.2403 14.1398 11.352C14.0942 11.4637 14.027 11.5653 13.942 11.6509L10.2754 15.3176C10.1899 15.403 10.0884 15.4708 9.97675 15.5171C9.86508 15.5634 9.74539 15.5872 9.62452 15.5872C9.50365 15.5872 9.38396 15.5634 9.27229 15.5171C9.16062 15.4708 9.05915 15.403 8.97369 15.3176C8.88822 15.2321 8.82042 15.1306 8.77416 15.019C8.72791 14.9073 8.7041 14.7876 8.7041 14.6667C8.7041 14.5459 8.72791 14.4262 8.77416 14.3145C8.82042 14.2028 8.88822 14.1014 8.97369 14.0159L12.0079 11.0001L9.09285 7.97507C8.99909 7.89075 8.92373 7.78798 8.87149 7.6732C8.81925 7.55843 8.79126 7.4341 8.78926 7.30801C8.78727 7.18192 8.81131 7.05678 8.85988 6.9404C8.90846 6.82403 8.98052 6.71892 9.07157 6.63167C9.16262 6.54442 9.27069 6.47689 9.38902 6.43331C9.50736 6.38972 9.63342 6.37103 9.75931 6.37839C9.8852 6.38575 10.0082 6.419 10.1207 6.47608C10.2331 6.53315 10.3326 6.61281 10.4129 6.71007L13.9512 10.3767C14.1128 10.5444 14.2046 10.7672 14.2079 11.0001Z" fill="#464A4D"/>
</svg>