<svg width="24" height="24" viewBox="0 0 24 24" fill="none" xmlns="http://www.w3.org/2000/svg">
<rect width="24" height="24" rx="7" fill="#F2F2F2"/>
<path d="M7.27955 7.27955C7.4586 7.10055 7.70141 7 7.95459 7C8.20776 7 8.45057 7.10055 8.62962 7.27955L12.0058 10.6557L15.3819 7.27955C15.562 7.10563 15.8032 7.00939 16.0535 7.01156C16.3038 7.01374 16.5433 7.11415 16.7203 7.29118C16.8974 7.46821 16.9978 7.70768 17 7.95802C17.0021 8.20837 16.9059 8.44955 16.732 8.62962L13.3558 12.0058L16.732 15.3819C16.9059 15.562 17.0021 15.8032 17 16.0535C16.9978 16.3038 16.8974 16.5433 16.7203 16.7203C16.5433 16.8974 16.3038 16.9978 16.0535 17C15.8032 17.0021 15.562 16.9059 15.3819 16.732L12.0058 13.3558L8.62962 16.732C8.44955 16.9059 8.20837 17.0021 7.95802 17C7.70768 16.9978 7.46821 16.8974 7.29118 16.7203C7.11415 16.5433 7.01374 16.3038 7.01156 16.0535C7.00939 15.8032 7.10563 15.562 7.27955 15.3819L10.6557 12.0058L7.27955 8.62962C7.10055 8.45057 7 8.20776 7 7.95459C7 7.70141 7.10055 7.4586 7.27955 7.27955Z" fill="#109EF4"/>
</svg>
