<svg width="20" height="18" viewBox="0 0 20 18" fill="none" xmlns="http://www.w3.org/2000/svg">
<path fill-rule="evenodd" clip-rule="evenodd" d="M8.3727 3.61438C6.91481 2.12854 4.5591 2.12854 3.10121 3.61438C1.63293 5.1108 1.63293 7.54471 3.10121 9.04114L9.28621 15.3447C9.67821 15.7442 10.3218 15.7442 10.7138 15.3447L16.8988 9.04114C18.3671 7.54471 18.3671 5.1108 16.8988 3.61438C15.4409 2.12854 13.0852 2.12854 11.6273 3.61438L10.7138 4.5454C10.5257 4.73706 10.2685 4.84504 10 4.84504C9.73149 4.84504 9.47426 4.73706 9.28621 4.5454L8.3727 3.61438ZM9.80028 2.21366L10 2.41721L10.1997 2.21366C12.4416 -0.0712184 16.0845 -0.0712184 18.3264 2.21366C20.5579 4.48794 20.5579 8.16757 18.3264 10.4419L12.1414 16.7454C10.9654 17.944 9.03465 17.944 7.85864 16.7454L1.67364 10.4419C-0.557878 8.16757 -0.557878 4.48794 1.67364 2.21366C3.91553 -0.0712184 7.55838 -0.0712184 9.80028 2.21366Z" fill="white"/>
</svg>
